<mxfile host="Electron" modified="2024-01-24T03:48:27.839Z" agent="Mozilla/5.0 (Windows NT 10.0; Win64; x64) AppleWebKit/537.36 (KHTML, like Gecko) draw.io/22.1.18 Chrome/120.0.6099.199 Electron/28.1.2 Safari/537.36" etag="L0ZftlQZriHDJeaDA-M9" version="22.1.18" type="device">
  <diagram name="PÃ¡gina-1" id="8AdeCf41ZoyzHluQUxPt">
    <mxGraphModel dx="960" dy="564" grid="1" gridSize="10" guides="1" tooltips="1" connect="1" arrows="1" fold="1" page="1" pageScale="1" pageWidth="827" pageHeight="1169" math="0" shadow="0">
      <root>
        <mxCell id="0" />
        <mxCell id="1" parent="0" />
        <mxCell id="_ulS4b2fXDJhAJSG0Am4-1" value="Carro" style="swimlane;fontStyle=0;childLayout=stackLayout;horizontal=1;startSize=26;fillColor=none;horizontalStack=0;resizeParent=1;resizeParentMax=0;resizeLast=0;collapsible=1;marginBottom=0;whiteSpace=wrap;html=1;" parent="1" vertex="1">
          <mxGeometry x="310" y="180" width="330" height="452" as="geometry" />
        </mxCell>
        <mxCell id="_ulS4b2fXDJhAJSG0Am4-2" value="-marca: string" style="text;strokeColor=none;fillColor=none;align=left;verticalAlign=top;spacingLeft=4;spacingRight=4;overflow=hidden;rotatable=0;points=[[0,0.5],[1,0.5]];portConstraint=eastwest;whiteSpace=wrap;html=1;" parent="_ulS4b2fXDJhAJSG0Am4-1" vertex="1">
          <mxGeometry y="26" width="330" height="26" as="geometry" />
        </mxCell>
        <mxCell id="_ulS4b2fXDJhAJSG0Am4-3" value="-modelo:string" style="text;strokeColor=none;fillColor=none;align=left;verticalAlign=top;spacingLeft=4;spacingRight=4;overflow=hidden;rotatable=0;points=[[0,0.5],[1,0.5]];portConstraint=eastwest;whiteSpace=wrap;html=1;" parent="_ulS4b2fXDJhAJSG0Am4-1" vertex="1">
          <mxGeometry y="52" width="330" height="26" as="geometry" />
        </mxCell>
        <mxCell id="_ulS4b2fXDJhAJSG0Am4-4" value="-anio: int" style="text;strokeColor=none;fillColor=none;align=left;verticalAlign=top;spacingLeft=4;spacingRight=4;overflow=hidden;rotatable=0;points=[[0,0.5],[1,0.5]];portConstraint=eastwest;whiteSpace=wrap;html=1;" parent="_ulS4b2fXDJhAJSG0Am4-1" vertex="1">
          <mxGeometry y="78" width="330" height="26" as="geometry" />
        </mxCell>
        <mxCell id="_ulS4b2fXDJhAJSG0Am4-66" value="-velocidadactual:int" style="text;strokeColor=none;fillColor=none;align=left;verticalAlign=top;spacingLeft=4;spacingRight=4;overflow=hidden;rotatable=0;points=[[0,0.5],[1,0.5]];portConstraint=eastwest;whiteSpace=wrap;html=1;" parent="_ulS4b2fXDJhAJSG0Am4-1" vertex="1">
          <mxGeometry y="104" width="330" height="26" as="geometry" />
        </mxCell>
        <mxCell id="JUOpnxjc4YCkRLhcucgR-2" value="-numcoche: int" style="text;strokeColor=none;fillColor=none;align=left;verticalAlign=top;spacingLeft=4;spacingRight=4;overflow=hidden;rotatable=0;points=[[0,0.5],[1,0.5]];portConstraint=eastwest;whiteSpace=wrap;html=1;" parent="_ulS4b2fXDJhAJSG0Am4-1" vertex="1">
          <mxGeometry y="130" width="330" height="26" as="geometry" />
        </mxCell>
        <mxCell id="_ulS4b2fXDJhAJSG0Am4-68" style="text;strokeColor=default;fillColor=none;align=left;verticalAlign=top;spacingLeft=4;spacingRight=4;overflow=hidden;rotatable=0;points=[[0,0.5],[1,0.5]];portConstraint=eastwest;whiteSpace=wrap;html=1;" parent="_ulS4b2fXDJhAJSG0Am4-1" vertex="1">
          <mxGeometry y="156" width="330" height="10" as="geometry" />
        </mxCell>
        <mxCell id="dYnokw8pIiYJTKMDLn86-35" value="+ carro()" style="text;strokeColor=none;fillColor=none;align=left;verticalAlign=top;spacingLeft=4;spacingRight=4;overflow=hidden;rotatable=0;points=[[0,0.5],[1,0.5]];portConstraint=eastwest;whiteSpace=wrap;html=1;" vertex="1" parent="_ulS4b2fXDJhAJSG0Am4-1">
          <mxGeometry y="166" width="330" height="26" as="geometry" />
        </mxCell>
        <mxCell id="_ulS4b2fXDJhAJSG0Am4-67" value="+carro(marca:string,modelo:string,anio:int,velocidadactual:int&lt;br&gt;)" style="text;strokeColor=none;fillColor=none;align=left;verticalAlign=top;spacingLeft=4;spacingRight=4;overflow=hidden;rotatable=0;points=[[0,0.5],[1,0.5]];portConstraint=eastwest;whiteSpace=wrap;html=1;" parent="_ulS4b2fXDJhAJSG0Am4-1" vertex="1">
          <mxGeometry y="192" width="330" height="26" as="geometry" />
        </mxCell>
        <mxCell id="dYnokw8pIiYJTKMDLn86-36" value="+ marca(): string" style="text;strokeColor=none;fillColor=none;align=left;verticalAlign=top;spacingLeft=4;spacingRight=4;overflow=hidden;rotatable=0;points=[[0,0.5],[1,0.5]];portConstraint=eastwest;whiteSpace=wrap;html=1;" vertex="1" parent="_ulS4b2fXDJhAJSG0Am4-1">
          <mxGeometry y="218" width="330" height="26" as="geometry" />
        </mxCell>
        <mxCell id="_ulS4b2fXDJhAJSG0Am4-74" value="+ setmarca(marca:string)" style="text;strokeColor=none;fillColor=none;align=left;verticalAlign=top;spacingLeft=4;spacingRight=4;overflow=hidden;rotatable=0;points=[[0,0.5],[1,0.5]];portConstraint=eastwest;whiteSpace=wrap;html=1;" parent="_ulS4b2fXDJhAJSG0Am4-1" vertex="1">
          <mxGeometry y="244" width="330" height="26" as="geometry" />
        </mxCell>
        <mxCell id="_ulS4b2fXDJhAJSG0Am4-73" value="+ getmodelo(): int" style="text;strokeColor=none;fillColor=none;align=left;verticalAlign=top;spacingLeft=4;spacingRight=4;overflow=hidden;rotatable=0;points=[[0,0.5],[1,0.5]];portConstraint=eastwest;whiteSpace=wrap;html=1;" parent="_ulS4b2fXDJhAJSG0Am4-1" vertex="1">
          <mxGeometry y="270" width="330" height="26" as="geometry" />
        </mxCell>
        <mxCell id="_ulS4b2fXDJhAJSG0Am4-72" value="+ setmodelo(modelo:int )" style="text;strokeColor=none;fillColor=none;align=left;verticalAlign=top;spacingLeft=4;spacingRight=4;overflow=hidden;rotatable=0;points=[[0,0.5],[1,0.5]];portConstraint=eastwest;whiteSpace=wrap;html=1;" parent="_ulS4b2fXDJhAJSG0Am4-1" vertex="1">
          <mxGeometry y="296" width="330" height="26" as="geometry" />
        </mxCell>
        <mxCell id="_ulS4b2fXDJhAJSG0Am4-71" value="+ getanio(): int" style="text;strokeColor=none;fillColor=none;align=left;verticalAlign=top;spacingLeft=4;spacingRight=4;overflow=hidden;rotatable=0;points=[[0,0.5],[1,0.5]];portConstraint=eastwest;whiteSpace=wrap;html=1;" parent="_ulS4b2fXDJhAJSG0Am4-1" vertex="1">
          <mxGeometry y="322" width="330" height="26" as="geometry" />
        </mxCell>
        <mxCell id="_ulS4b2fXDJhAJSG0Am4-70" value="+ setanio(anio: int)" style="text;strokeColor=none;fillColor=none;align=left;verticalAlign=top;spacingLeft=4;spacingRight=4;overflow=hidden;rotatable=0;points=[[0,0.5],[1,0.5]];portConstraint=eastwest;whiteSpace=wrap;html=1;" parent="_ulS4b2fXDJhAJSG0Am4-1" vertex="1">
          <mxGeometry y="348" width="330" height="26" as="geometry" />
        </mxCell>
        <mxCell id="_ulS4b2fXDJhAJSG0Am4-69" value="+ getvelocidadactual(): String" style="text;strokeColor=none;fillColor=none;align=left;verticalAlign=top;spacingLeft=4;spacingRight=4;overflow=hidden;rotatable=0;points=[[0,0.5],[1,0.5]];portConstraint=eastwest;whiteSpace=wrap;html=1;" parent="_ulS4b2fXDJhAJSG0Am4-1" vertex="1">
          <mxGeometry y="374" width="330" height="26" as="geometry" />
        </mxCell>
        <mxCell id="_ulS4b2fXDJhAJSG0Am4-76" value="+ setvelocidadactual(velocidadactual:int)" style="text;strokeColor=none;fillColor=none;align=left;verticalAlign=top;spacingLeft=4;spacingRight=4;overflow=hidden;rotatable=0;points=[[0,0.5],[1,0.5]];portConstraint=eastwest;whiteSpace=wrap;html=1;" parent="_ulS4b2fXDJhAJSG0Am4-1" vertex="1">
          <mxGeometry y="400" width="330" height="26" as="geometry" />
        </mxCell>
        <mxCell id="JUOpnxjc4YCkRLhcucgR-3" value="+ numcoche(): int" style="text;strokeColor=none;fillColor=none;align=left;verticalAlign=top;spacingLeft=4;spacingRight=4;overflow=hidden;rotatable=0;points=[[0,0.5],[1,0.5]];portConstraint=eastwest;whiteSpace=wrap;html=1;" parent="_ulS4b2fXDJhAJSG0Am4-1" vertex="1">
          <mxGeometry y="426" width="330" height="26" as="geometry" />
        </mxCell>
        <mxCell id="ziJ8A-64Hif3GfCiuzLE-1" value="Integrantes: Cristhian Brandon Moreno Sachez.&lt;br&gt;Samuel Rodriguez Xochitemo.&lt;br&gt;Christian Leonardo Hernandez Nava" style="rounded=0;whiteSpace=wrap;html=1;" parent="1" vertex="1">
          <mxGeometry x="650" y="90" width="260" height="60" as="geometry" />
        </mxCell>
        <mxCell id="dYnokw8pIiYJTKMDLn86-1" value="Carro3" style="swimlane;fontStyle=0;childLayout=stackLayout;horizontal=1;startSize=26;fillColor=none;horizontalStack=0;resizeParent=1;resizeParentMax=0;resizeLast=0;collapsible=1;marginBottom=0;whiteSpace=wrap;html=1;" vertex="1" parent="1">
          <mxGeometry x="970" y="185" width="280" height="218" as="geometry" />
        </mxCell>
        <mxCell id="dYnokw8pIiYJTKMDLn86-4" value="-anio: int" style="text;strokeColor=none;fillColor=none;align=left;verticalAlign=top;spacingLeft=4;spacingRight=4;overflow=hidden;rotatable=0;points=[[0,0.5],[1,0.5]];portConstraint=eastwest;whiteSpace=wrap;html=1;" vertex="1" parent="dYnokw8pIiYJTKMDLn86-1">
          <mxGeometry y="26" width="280" height="26" as="geometry" />
        </mxCell>
        <mxCell id="dYnokw8pIiYJTKMDLn86-5" value="-velocidadactual:int" style="text;strokeColor=none;fillColor=none;align=left;verticalAlign=top;spacingLeft=4;spacingRight=4;overflow=hidden;rotatable=0;points=[[0,0.5],[1,0.5]];portConstraint=eastwest;whiteSpace=wrap;html=1;" vertex="1" parent="dYnokw8pIiYJTKMDLn86-1">
          <mxGeometry y="52" width="280" height="26" as="geometry" />
        </mxCell>
        <mxCell id="dYnokw8pIiYJTKMDLn86-7" style="text;strokeColor=default;fillColor=none;align=left;verticalAlign=top;spacingLeft=4;spacingRight=4;overflow=hidden;rotatable=0;points=[[0,0.5],[1,0.5]];portConstraint=eastwest;whiteSpace=wrap;html=1;" vertex="1" parent="dYnokw8pIiYJTKMDLn86-1">
          <mxGeometry y="78" width="280" height="10" as="geometry" />
        </mxCell>
        <mxCell id="dYnokw8pIiYJTKMDLn86-38" value="+ carro(anio:int,velocidad actual:int)" style="text;strokeColor=none;fillColor=none;align=left;verticalAlign=top;spacingLeft=4;spacingRight=4;overflow=hidden;rotatable=0;points=[[0,0.5],[1,0.5]];portConstraint=eastwest;whiteSpace=wrap;html=1;" vertex="1" parent="dYnokw8pIiYJTKMDLn86-1">
          <mxGeometry y="88" width="280" height="26" as="geometry" />
        </mxCell>
        <mxCell id="dYnokw8pIiYJTKMDLn86-12" value="+ getanio(): int" style="text;strokeColor=none;fillColor=none;align=left;verticalAlign=top;spacingLeft=4;spacingRight=4;overflow=hidden;rotatable=0;points=[[0,0.5],[1,0.5]];portConstraint=eastwest;whiteSpace=wrap;html=1;" vertex="1" parent="dYnokw8pIiYJTKMDLn86-1">
          <mxGeometry y="114" width="280" height="26" as="geometry" />
        </mxCell>
        <mxCell id="dYnokw8pIiYJTKMDLn86-13" value="+ setanio(anio: int)" style="text;strokeColor=none;fillColor=none;align=left;verticalAlign=top;spacingLeft=4;spacingRight=4;overflow=hidden;rotatable=0;points=[[0,0.5],[1,0.5]];portConstraint=eastwest;whiteSpace=wrap;html=1;" vertex="1" parent="dYnokw8pIiYJTKMDLn86-1">
          <mxGeometry y="140" width="280" height="26" as="geometry" />
        </mxCell>
        <mxCell id="dYnokw8pIiYJTKMDLn86-14" value="+ getvelocidadactual(): String" style="text;strokeColor=none;fillColor=none;align=left;verticalAlign=top;spacingLeft=4;spacingRight=4;overflow=hidden;rotatable=0;points=[[0,0.5],[1,0.5]];portConstraint=eastwest;whiteSpace=wrap;html=1;" vertex="1" parent="dYnokw8pIiYJTKMDLn86-1">
          <mxGeometry y="166" width="280" height="26" as="geometry" />
        </mxCell>
        <mxCell id="dYnokw8pIiYJTKMDLn86-15" value="+ setvelocidadactual(velocidadactual:int)" style="text;strokeColor=none;fillColor=none;align=left;verticalAlign=top;spacingLeft=4;spacingRight=4;overflow=hidden;rotatable=0;points=[[0,0.5],[1,0.5]];portConstraint=eastwest;whiteSpace=wrap;html=1;" vertex="1" parent="dYnokw8pIiYJTKMDLn86-1">
          <mxGeometry y="192" width="280" height="26" as="geometry" />
        </mxCell>
        <mxCell id="dYnokw8pIiYJTKMDLn86-18" value="Carro2" style="swimlane;fontStyle=0;childLayout=stackLayout;horizontal=1;startSize=26;fillColor=none;horizontalStack=0;resizeParent=1;resizeParentMax=0;resizeLast=0;collapsible=1;marginBottom=0;whiteSpace=wrap;html=1;" vertex="1" parent="1">
          <mxGeometry x="650" y="190" width="280" height="218" as="geometry" />
        </mxCell>
        <mxCell id="dYnokw8pIiYJTKMDLn86-19" value="-marca: string" style="text;strokeColor=none;fillColor=none;align=left;verticalAlign=top;spacingLeft=4;spacingRight=4;overflow=hidden;rotatable=0;points=[[0,0.5],[1,0.5]];portConstraint=eastwest;whiteSpace=wrap;html=1;" vertex="1" parent="dYnokw8pIiYJTKMDLn86-18">
          <mxGeometry y="26" width="280" height="26" as="geometry" />
        </mxCell>
        <mxCell id="dYnokw8pIiYJTKMDLn86-20" value="-modelo:string" style="text;strokeColor=none;fillColor=none;align=left;verticalAlign=top;spacingLeft=4;spacingRight=4;overflow=hidden;rotatable=0;points=[[0,0.5],[1,0.5]];portConstraint=eastwest;whiteSpace=wrap;html=1;" vertex="1" parent="dYnokw8pIiYJTKMDLn86-18">
          <mxGeometry y="52" width="280" height="26" as="geometry" />
        </mxCell>
        <mxCell id="dYnokw8pIiYJTKMDLn86-24" style="text;strokeColor=default;fillColor=none;align=left;verticalAlign=top;spacingLeft=4;spacingRight=4;overflow=hidden;rotatable=0;points=[[0,0.5],[1,0.5]];portConstraint=eastwest;whiteSpace=wrap;html=1;" vertex="1" parent="dYnokw8pIiYJTKMDLn86-18">
          <mxGeometry y="78" width="280" height="10" as="geometry" />
        </mxCell>
        <mxCell id="dYnokw8pIiYJTKMDLn86-37" value="+ carro2(marca:string,modelo:string)" style="text;strokeColor=none;fillColor=none;align=left;verticalAlign=top;spacingLeft=4;spacingRight=4;overflow=hidden;rotatable=0;points=[[0,0.5],[1,0.5]];portConstraint=eastwest;whiteSpace=wrap;html=1;" vertex="1" parent="dYnokw8pIiYJTKMDLn86-18">
          <mxGeometry y="88" width="280" height="26" as="geometry" />
        </mxCell>
        <mxCell id="dYnokw8pIiYJTKMDLn86-25" value="+ marca(): string" style="text;strokeColor=none;fillColor=none;align=left;verticalAlign=top;spacingLeft=4;spacingRight=4;overflow=hidden;rotatable=0;points=[[0,0.5],[1,0.5]];portConstraint=eastwest;whiteSpace=wrap;html=1;" vertex="1" parent="dYnokw8pIiYJTKMDLn86-18">
          <mxGeometry y="114" width="280" height="26" as="geometry" />
        </mxCell>
        <mxCell id="dYnokw8pIiYJTKMDLn86-26" value="+ setmarca(marca:string)" style="text;strokeColor=none;fillColor=none;align=left;verticalAlign=top;spacingLeft=4;spacingRight=4;overflow=hidden;rotatable=0;points=[[0,0.5],[1,0.5]];portConstraint=eastwest;whiteSpace=wrap;html=1;" vertex="1" parent="dYnokw8pIiYJTKMDLn86-18">
          <mxGeometry y="140" width="280" height="26" as="geometry" />
        </mxCell>
        <mxCell id="dYnokw8pIiYJTKMDLn86-27" value="+ getmodelo(): int" style="text;strokeColor=none;fillColor=none;align=left;verticalAlign=top;spacingLeft=4;spacingRight=4;overflow=hidden;rotatable=0;points=[[0,0.5],[1,0.5]];portConstraint=eastwest;whiteSpace=wrap;html=1;" vertex="1" parent="dYnokw8pIiYJTKMDLn86-18">
          <mxGeometry y="166" width="280" height="26" as="geometry" />
        </mxCell>
        <mxCell id="dYnokw8pIiYJTKMDLn86-28" value="+ setmodelo(modelo:int )" style="text;strokeColor=none;fillColor=none;align=left;verticalAlign=top;spacingLeft=4;spacingRight=4;overflow=hidden;rotatable=0;points=[[0,0.5],[1,0.5]];portConstraint=eastwest;whiteSpace=wrap;html=1;" vertex="1" parent="dYnokw8pIiYJTKMDLn86-18">
          <mxGeometry y="192" width="280" height="26" as="geometry" />
        </mxCell>
      </root>
    </mxGraphModel>
  </diagram>
</mxfile>
